<?xml version="1.0" encoding="utf-8"?>
<!DOCTYPE svg PUBLIC "-//W3C//DTD SVG 20010904//EN" "http://www.w3.org/TR/2001/REC-SVG-20010904/DTD/svg10.dtd">
<svg version="1.0" xmlns="http://www.w3.org/2000/svg" width="15px" height="26px" viewBox="0 0 15 26" preserveAspectRatio="xMidYMid meet">
 <g fill="#ffffff">
  <path d="M5 20 c0 -5.7 -0.1 -6 -2.5 -6 -1.8 0 -2.5 -0.5 -2.5 -2 0 -1.4 0.7 -2 2.4 -2 2 0 2.4 -0.6 3 -4 0.6 -4.1 2.7 -6 6.5 -6 3 0 2.8 3.8 -0.1 4.2 -1.7 0.2 -2.4 1.1 -2.6 3.1 -0.3 2.3 0 2.7 2.2 2.7 1.9 0 2.6 0.5 2.6 2 0 1.5 -0.7 2 -2.5 2 -2.4 0 -2.5 0.3 -2.5 6 0 5.3 -0.2 6 -2 6 -1.8 0 -2 -0.7 -2 -6z"/>
 </g>
</svg>