<?xml version="1.0" encoding="utf-8"?>
<!DOCTYPE svg PUBLIC "-//W3C//DTD SVG 20010904//EN" "http://www.w3.org/TR/2001/REC-SVG-20010904/DTD/svg10.dtd">
<svg version="1.0" xmlns="http://www.w3.org/2000/svg" width="26px" height="27px" viewBox="0 0 26 27" preserveAspectRatio="xMidYMid meet">
 <g fill="#ffffff">
  <path d="M1.6 24.4 c-1.1 -3 -0.7 -20.9 0.6 -22.2 1.4 -1.4 19.5 -1.7 21.6 -0.3 1.9 1.1 2.9 20.6 1.2 22.6 -1.9 2.3 -22.5 2.2 -23.4 -0.1z m22.2 -6.5 c0.3 -6 0.1 -6.7 -1.8 -7.2 -1.7 -0.4 -2 0 -2 2.3 0 3.8 -3 7.3 -6.3 7.3 -3.9 0 -6.7 -2.9 -6.7 -6.8 0 -2.9 -0.3 -3.2 -2.5 -2.7 -2.3 0.4 -2.5 0.8 -2.5 6.1 0 3.2 0.5 6.2 1.2 6.9 0.9 0.9 4.2 1.2 10.8 1 l9.5 -0.3 0.3 -6.6z m-7.3 -0.5 c1.9 -2 1.6 -6.3 -0.6 -7.7 -2.6 -1.6 -6.8 0 -7.5 2.9 -1.2 4.8 4.6 8.3 8.1 4.8z m7.5 -11.4 c0 -2.7 -0.3 -3 -3 -3 -2.5 0 -3 0.4 -3 2.3 0 3 0.7 3.7 3.7 3.7 1.9 0 2.3 -0.5 2.3 -3z"/>
 </g>
</svg>