<?xml version="1.0" encoding="utf-8"?>
<!DOCTYPE svg PUBLIC "-//W3C//DTD SVG 20010904//EN" "http://www.w3.org/TR/2001/REC-SVG-20010904/DTD/svg10.dtd">
<svg version="1.0" xmlns="http://www.w3.org/2000/svg" width="21px" height="27px" viewBox="0 0 21 27" preserveAspectRatio="xMidYMid meet">
 <g fill="#ffffff">
  <path d="M5.7 21.5 c0.3 -2.7 0.9 -7 1.2 -9.5 0.4 -3.1 1.1 -4.5 2.1 -4.5 1 0 1.4 0.8 1.2 2.5 -0.1 1.4 -0.4 3.4 -0.5 4.5 -0.3 3 4.8 3.4 6.3 0.4 1.9 -3.5 1.7 -8.9 -0.5 -10.5 -3 -2.2 -7.8 -1.7 -10.5 1.1 -1.8 1.9 -2.2 3.1 -1.7 6 0.4 2.6 0.2 3.5 -0.6 3.2 -0.7 -0.2 -1.3 -2.1 -1.5 -4.3 -0.4 -5.2 2.8 -8.4 9 -9.1 5.9 -0.7 9.8 2.7 9.8 8.7 0 6.6 -7 11.6 -10.8 7.8 -0.9 -0.9 -1.2 -0.8 -1.2 0.8 -0.1 1 -0.7 3.3 -1.5 4.9 -1.5 2.9 -1.5 2.9 -0.8 -2z"/>
 </g>
</svg>